<?xml version="1.0" encoding="UTF-8" standalone="no"?>
<svg
   data-icon="louvorja"
   role="img"
   version="1.1"
   preserveAspectRatio="none"
   x="0px"
   y="0px"
   width="300"
   height="300"
   viewBox="0 0 300 300"
   id="svg1801"
   xmlns="http://www.w3.org/2000/svg"
   xmlns:svg="http://www.w3.org/2000/svg">
  <defs
     id="defs1805" />
  <g
     id="g3018"
     transform="translate(12.975,7.6744949)">
    <g
       id="Layer0_0_FILL">
      <path
         fill="#f8c800"
         stroke="none"
         d="M 115.5,10.75 Q 99.25,13.15 84.6,19.2 71.95,24.35 60.6,32.25 49.85,39.5 40.1,49.15 33.9,55.35 28.75,61.95 19.35,73.85 13,87.1 0,113.95 0,146.15 q 0,17.45 3.8,33.4 8.5,35.7 36.3,63.35 39.6,39.75 95.3,40.35 -0.45,-0.35 -0.85,-0.75 -0.1,-0.1 -0.1,-0.2 -0.25,-0.25 -0.35,-0.4 -1.45,-1.9 -1.45,-4.25 0,-2.75 2.65,-5.5 2.5,-2.75 8.1,-4.05 l -5,-30.2 q -3,0.5 -6.1,0.6 -1.3,0 -2.95,0 -1,0 -1.8,0 Q 105.95,237.8 90.2,221.9 73.25,205.1 73.25,181 v -4.8 q 0,-3.3 1.2,-7.25 4.55,-22.2 22.65,-36.4 2.05,-1.55 4.3,-3.1 1.8,-1.2 3.85,-2.4 l 12.4,-6.65 q -0.15,-0.6 -0.25,-1.1 -2.25,-13.6 -3,-27.2 -0.25,-2.35 -0.25,-4.9 -0.7,-17.65 1,-35.3 Q 115.7,45 116.8,38.05 120,22.2 129.35,9.45 122.3,9.7 115.5,10.75 m 43.55,170.5 q -4.3,-4.05 -10.3,-5.75 -5.8,-1.9 -15.35,-1.9 l 8.95,57.85 q 7,-2.75 11.2,-5.25 1.2,-0.7 2.15,-1.4 4.15,-3.35 6.65,-7.4 4.9,-7.4 4.9,-16.95 0,-11.6 -8.2,-19.2 m -38.3,-48.8 q -4.2,1.9 -6.8,4.3 -2.5,2.25 -5.85,5.85 -1.45,1.75 -2.4,2.7 -9.05,10.65 -14.2,20.4 -5.95,11.7 -5.95,24.85 0,19.2 14.05,31.15 10.4,8.8 24.6,10.85 4.15,0.6 8.7,0.6 2.65,0 5,-0.4 L 127.05,174.3 q -9.9,1.9 -13.85,10.65 -0.6,0.95 -0.8,2 -1.2,3.25 -1.1,7.65 0,8.95 3.6,14.55 -6.55,-5.15 -8.85,-10.15 -2.35,-5 -2.35,-11.1 0,-9.05 3.65,-16.2 2.75,-4.2 5.25,-6.7 5.05,-5.1 11.5,-7.25 l -3.35,-25.3 M 150.7,46.8 q 0,-3.95 -0.25,-7.4 -0.5,-7.9 -2.15,-13.75 -2.05,-8.8 -6.2,-8.8 -1.7,0 -3.6,1.3 -7.6,7.3 -13.35,25.9 -4.9,16.1 -4.9,29.7 0,7.15 0.35,13.45 0.15,3.5 0.35,6.7 0.75,8.7 2.55,21.7 0.1,0.75 0.2,1.55 1.45,-1.15 3,-2.25 1.65,-1.65 3.35,-3.35 5.35,-5.7 8.45,-11.55 0.5,-0.95 0.95,-2.05 0.15,-0.35 0.35,-0.7 10.65,-22.9 10.9,-50.1 0,-0.25 0,-0.35 z"
         id="path1792" />
      <path
         fill="#0097d7"
         stroke="none"
         d="m 215.8,116.55 q 1.45,-39.25 -5,-86.1 Q 183.95,12.9 151.05,9.9 q 0.25,0.75 0.6,1.7 l 0.45,1.2 q 3.1,6.05 4.45,13.35 1.05,5.5 2,12.75 l 0.5,4.05 q 0,0.25 0,0.5 l 0.2,3.35 q 1.45,19.05 -2.25,36 34.1,20.65 58.8,33.75 m 57.75,41.55 q -14.3,-2.75 -47.45,-24.85 0.45,74.7 -34,138.9 22.65,-10.15 41.6,-29.25 36.05,-35.65 39.85,-84.8 z"
         id="path1794" />
      <path
         fill="#0054d8"
         stroke="none"
         d="m 233.7,49.15 q -10.85,-10.85 -22.75,-18.6 13.1,48.1 14.9,91.25 32.45,16.6 48.05,17.9 -2.25,-52.6 -40.2,-90.55 M 175.5,179.1 q 2.75,7 2.75,15.6 0,13.15 -7.4,23.15 -3.95,5.4 -9.8,9.8 -2.75,2 -6.45,4.15 -1.75,1.1 -3.8,2.15 -3.1,1.55 -6.45,2.5 l 5.15,33.2 q -0.15,0.8 -0.25,1.65 59.55,-47.25 66.1,-145.3 -24.45,-16.8 -58.45,-42.7 -1.35,5.45 -3,10.7 -0.25,1 -0.5,1.95 -0.8,2 -1.75,4.05 -0.25,0.45 -0.5,0.95 -3.8,8.1 -8,13.6 -5.35,7.15 -16.55,15.25 l 3.8,26.5 q 5.5,-0.7 11.8,0.5 3.85,0.55 8,2 9.05,3.35 16.45,9.45 6,4.05 8.85,10.85 z"
         id="path1796" />
      <path
         fill="#000000"
         stroke="none"
         d="m 210.7,29.85 q 0,0.25 0.1,0.6 6.45,46.85 5,86.1 -24.7,-13.1 -58.8,-33.75 3.7,-16.95 2.25,-36 l -0.2,-3.35 q 0,-0.25 0,-0.5 l -0.5,-4.05 q -0.95,-7.25 -2,-12.75 -1.35,-7.3 -4.45,-13.35 l -0.45,-1.2 q -0.35,-0.95 -0.6,-1.7 -0.25,-0.35 -0.35,-0.7 -0.15,-0.25 -0.15,-0.5 -1.8,-4.15 -5.7,-7 -3.95,-2.9 -6.8,-0.85 -4.2,2.85 -6.8,5.95 -0.95,1.35 -1.9,2.65 -9.35,12.75 -12.55,28.6 -1.1,6.95 -1.65,13.85 -1.7,17.65 -1,35.3 0,2.55 0.25,4.9 0.75,13.6 3,27.2 0.1,0.5 0.25,1.1 l -12.4,6.65 q -2.05,1.2 -3.85,2.4 -2.25,1.55 -4.3,3.1 -18.1,14.2 -22.65,36.4 -1.2,3.95 -1.2,7.25 v 4.8 q 0,24.1 16.95,40.9 15.75,15.9 37.35,16.6 0.8,0 1.8,0 1.65,0 2.95,0 3.1,-0.1 6.1,-0.6 l 5,30.2 q -5.6,1.3 -8.1,4.05 -2.65,2.75 -2.65,5.5 0,2.35 1.45,4.25 0.1,0.15 0.35,0.4 0,0.1 0.1,0.2 0.4,0.4 0.85,0.75 1.8,1.4 3.85,1.4 2.25,0 4.25,-1.55 21.85,-0.95 41.05,-8 3.85,-1.4 7.55,-2.95 34.45,-64.2 34,-138.9 33.15,22.1 47.45,24.85 0.25,-2.5 0.35,-4.9 v -0.1 q 0,-1.2 0.15,-2.3 0,-2.4 0,-4.65 0,-3.35 -0.15,-6.45 -15.6,-1.3 -48.05,-17.9 -1.8,-43.15 -14.9,-91.25 -0.15,-0.35 -0.25,-0.7 M 178.25,194.7 q 0,-8.6 -2.75,-15.6 -2.85,-6.8 -8.85,-10.85 -7.4,-6.1 -16.45,-9.45 -4.15,-1.45 -8,-2 -6.3,-1.2 -11.8,-0.5 l -3.8,-26.5 q 11.2,-8.1 16.55,-15.25 4.2,-5.5 8,-13.6 0.25,-0.5 0.5,-0.95 0.95,-2.05 1.75,-4.05 0.25,-0.95 0.5,-1.95 1.65,-5.25 3,-10.7 34,25.9 58.45,42.7 -6.55,98.05 -66.1,145.3 0.1,-0.85 0.25,-1.65 l -5.15,-33.2 q 3.35,-0.95 6.45,-2.5 2.05,-1.05 3.8,-2.15 3.7,-2.15 6.45,-4.15 5.85,-4.4 9.8,-9.8 7.4,-10 7.4,-23.15 M 150.45,39.4 q 0.25,3.45 0.25,7.4 0,0.1 0,0.35 -0.25,27.2 -10.9,50.1 -0.2,0.35 -0.35,0.7 -0.45,1.1 -0.95,2.05 -3.1,5.85 -8.45,11.55 -1.7,1.7 -3.35,3.35 -1.55,1.1 -3,2.25 -0.1,-0.8 -0.2,-1.55 -1.8,-13 -2.55,-21.7 -0.2,-3.2 -0.35,-6.7 -0.35,-6.3 -0.35,-13.45 0,-13.6 4.9,-29.7 5.75,-18.6 13.35,-25.9 1.9,-1.3 3.6,-1.3 4.15,0 6.2,8.8 1.65,5.85 2.15,13.75 m -36.5,97.35 q 2.6,-2.4 6.8,-4.3 l 3.35,25.3 q -6.45,2.15 -11.5,7.25 -2.5,2.5 -5.25,6.7 -3.65,7.15 -3.65,16.2 0,6.1 2.35,11.1 2.3,5 8.85,10.15 -3.6,-5.6 -3.6,-14.55 -0.1,-4.4 1.1,-7.65 0.2,-1.05 0.8,-2 3.95,-8.75 13.85,-10.65 l 10.85,58.45 q -2.35,0.4 -5,0.4 -4.55,0 -8.7,-0.6 Q 110,230.5 99.6,221.7 85.55,209.75 85.55,190.55 q 0,-13.15 5.95,-24.85 5.15,-9.75 14.2,-20.4 0.95,-0.95 2.4,-2.7 3.35,-3.6 5.85,-5.85 m 34.8,38.75 q 6,1.7 10.3,5.75 8.2,7.6 8.2,19.2 0,9.55 -4.9,16.95 -2.5,4.05 -6.65,7.4 -0.95,0.7 -2.15,1.4 -4.2,2.5 -11.2,5.25 L 133.4,173.6 q 9.55,0 15.35,1.9 z"
         id="path1798" />
    </g>
  </g>
</svg>
